HIERARCHY
ROOT Hips
{
  OFFSET 189.248 101.436 35.0287
  CHANNELS 6 Xposition Yposition Zposition Zrotation Xrotation Yrotation
  JOINT RightUpLeg
  {
    OFFSET -8.9458 -8.66707 0.101652
    CHANNELS 3 Zrotation Xrotation Yrotation
    JOINT RightLeg
    {
      OFFSET 0 -44.4227 1.3727
      CHANNELS 3 Zrotation Xrotation Yrotation
      JOINT RightFoot
      {
        OFFSET 0.253549 -42.0924 -1.46059
        CHANNELS 3 Zrotation Xrotation Yrotation
        JOINT RightToes
        {
          OFFSET 0.04 -4.41509 8.4991
          CHANNELS 3 Zrotation Xrotation Yrotation
          End Site
          {
            OFFSET -0.08 -0.137448 9.77979
          }
        }
      }
    }
  }
  JOINT Spine
  {
    OFFSET 0 11.8905 0
    CHANNELS 3 Zrotation Xrotation Yrotation
    JOINT Spine1
    {
      OFFSET 0 25.6574 0.127663
      CHANNELS 3 Zrotation Xrotation Yrotation
      JOINT HEad
      {
        OFFSET 0 8.73416 0.011341
        CHANNELS 3 Zrotation Xrotation Yrotation
        End Site
        {
          OFFSET -0.29 12.7742 2.51395
        }
      }
      JOINT LeftShoulder1
      {
        OFFSET 8.99 -0.362252 -0.22
        CHANNELS 3 Zrotation Xrotation Yrotation
        JOINT LeftArm
        {
          OFFSET 10.2827 -0.00338 0.322123
          CHANNELS 3 Zrotation Xrotation Yrotation
          JOINT LeftForeArm
          {
            OFFSET 32.7669 0.099144 -1.42434
            CHANNELS 3 Zrotation Xrotation Yrotation
            JOINT LeftHand
            {
              OFFSET 27.5643 0.085362 1.02216
              CHANNELS 3 Zrotation Xrotation Yrotation
              End Site
              {
                OFFSET 16.7443 -0.6 1.50291
              }
            }
          }
        }
      }
      JOINT RightShoulder
      {
        OFFSET -8.99 -0.362252 -0.22
        CHANNELS 3 Zrotation Xrotation Yrotation
        JOINT RightArm
        {
          OFFSET -10.2827 -0.00338 0.322123
          CHANNELS 3 Zrotation Xrotation Yrotation
          JOINT RightForeArm
          {
            OFFSET -32.8971 0.099144 -1.42434
            CHANNELS 3 Zrotation Xrotation Yrotation
            JOINT RightHand
            {
              OFFSET -27.4921 0.085362 1.02216
              CHANNELS 3 Zrotation Xrotation Yrotation
              End Site
              {
                OFFSET -16.6312 -0.6 1.50291
              }
            }
          }
        }
      }
    }
  }
  JOINT LeftUpLeg
  {
    OFFSET 8.9458 -8.66707 0.101652
    CHANNELS 3 Zrotation Xrotation Yrotation
    JOINT LeftLeg
    {
      OFFSET 0 -44.4227 1.3727
      CHANNELS 3 Zrotation Xrotation Yrotation
      JOINT LeftFoot
      {
        OFFSET -0.253549 -42.0924 -1.46059
        CHANNELS 3 Zrotation Xrotation Yrotation
        JOINT LeftToes
        {
          OFFSET -0.04 -4.41509 8.4991
          CHANNELS 3 Zrotation Xrotation Yrotation
          End Site
          {
            OFFSET 0.08 -0.047448 9.77979
          }
        }
      }
    }
  }
}
MOTION
Frames:	12
Frame Time:	0.0166667
147.3907	95.8533	-152.809	6.36355	-20.5677	-177.953	-10.2513	-50.0002	-1.65715	55.7222	66.7427	-56.3991	11.7762	-0.699327	-17.4805	0.0462048	0.000533964	0.662642	-0.420872	1.03268	-0.0486947	-0.841075	2.06847	-0.090034	-0.835961	16.4987	15.2963	5.96E-16	-3.18E-15	-7.95E-16	-61.5349	38.7018	12.3953	-27.9668	22.6016	-104.953	-18.198	6.95951	2.93968	5.96E-16	-3.18E-15	-7.95E-16	76.5396	41.753	-34.2374	22.039	20.1711	104.483	9.27914	8.46198	2.00632	5.67546	-52.3497	15.907	8.17475	45.6348	-12.349	-9.72383	-16.447	-3.3549	1.55E-14	3.22E-14	4.77E-15
147.1267	96.4291	-154.072	6.46222	-20.3174	-177.943	-9.37437	-51.4702	-0.873665	51.7268	66.2129	-52.3596	10.5748	-0.598873	-16.4322	0.0462048	0.000533964	0.662642	-0.403724	1.0067	-0.079581	-0.806237	2.01671	-0.152313	-0.681591	16.5363	15.6703	2.39E-15	6.36E-15	3.98E-16	-61.3492	38.3721	12.393	-27.7501	22.9166	-104.928	-17.9768	6.81537	2.69528	2.39E-15	6.36E-15	3.98E-16	76.3118	41.516	-34.062	21.8901	20.3869	104.421	9.31459	8.52803	1.93997	5.4333	-50.6481	15.7467	7.89895	44.6692	-12.0656	-9.80778	-16.7485	-3.45461	1.66E-14	3.14E-14	6.36E-15
146.8737	96.9655	-155.333	6.53376	-20.0504	-177.863	-8.51703	-52.8096	-0.0911814	47.3693	65.349	-48.1558	9.29981	-0.51732	-15.0042	0.0462048	0.000533964	0.662642	-0.391994	0.980299	-0.122953	-0.782055	1.96419	-0.239461	-0.452362	16.5415	15.9418	-4.97E-16	-6.36E-15	-7.95E-16	-61.1699	38.1539	12.3447	-27.6403	23.2144	-104.815	-17.713	6.73161	2.46004	-4.97E-16	-6.36E-15	-7.95E-16	76.1436	41.1779	-33.9452	21.725	20.5733	104.331	9.42143	8.57855	1.86125	5.10678	-48.9212	15.5735	7.67864	43.6484	-11.8654	-9.87931	-17.0142	-3.55353	1.54E-14	3.22E-14	5.57E-15
146.6397	97.4528	-156.61	6.6105	-19.8462	-177.736	-7.61054	-54.1059	0.725304	42.8928	64.1593	-44.0075	8.20026	-0.52304	-13.5894	0.0462048	0.000533964	0.662642	-0.375823	0.934678	-0.16882	-0.74904	1.87322	-0.331787	-0.162021	16.5373	16.0948	-1.59E-15	6.36E-15	3.98E-16	-61.0297	38.0911	12.2486	-27.6319	23.4126	-104.638	-17.4496	6.69863	2.26069	-1.59E-15	6.36E-15	3.98E-16	75.9475	40.7347	-33.806	21.6206	20.8085	104.174	9.58987	8.60581	1.7741	4.81306	-47.2941	15.5228	7.51828	42.6238	-11.7395	-9.93659	-17.2637	-3.67659	1.83E-14	3.22E-14	4.77E-15
146.4217	97.887	-157.88	6.64663	-19.6843	-177.577	-6.7606	-55.3028	1.52411	38.3279	62.6323	-39.9139	7.00553	-0.580203	-11.7113	0.0462048	0.000533964	0.662642	-0.367635	0.877087	-0.23426	-0.731807	1.75843	-0.463183	0.14474	16.6128	16.1882	1.79E-15	0.00E+00	0.00E+00	-60.9346	38.1418	12.1432	-27.7277	23.4965	-104.424	-17.2195	6.73392	2.10304	1.79E-15	0.00E+00	0.00E+00	75.6988	40.2629	-33.6164	21.5899	21.0859	103.938	9.80703	8.61749	1.71236	4.51188	-45.7393	15.5703	7.39895	41.6429	-11.67	-9.99535	-17.5584	-3.82531	1.46E-14	3.22E-14	5.57E-15
146.2397	98.2667	-159.155	6.64169	-19.5329	-177.399	-5.96238	-56.3418	2.29632	33.7661	60.7238	-36.0595	6.31402	-0.75251	-10.2844	0.0462048	0.000533964	0.662642	-0.365111	0.819183	-0.308727	-0.725911	1.64308	-0.612537	0.438267	16.8078	16.2085	9.94E-17	0.00E+00	3.98E-16	-60.8489	38.2493	12.0477	-27.8757	23.5185	-104.229	-17.0322	6.81327	1.99635	9.94E-17	0.00E+00	3.98E-16	75.3995	39.7994	-33.3931	21.6156	21.3773	103.663	10.0816	8.61075	1.65844	4.19687	-44.2414	15.6132	7.28617	40.7323	-11.633	-10.0793	-17.8974	-3.95964	1.78E-14	3.30E-14	4.77E-15
146.0947	98.5897	-160.42	6.64048	-19.4254	-177.219	-5.13994	-57.2285	3.0167	29.1862	58.4129	-32.4294	5.59862	-0.91143	-8.2718	0.0462048	0.000533964	0.662642	-0.358187	0.751084	-0.379263	-0.711481	1.50729	-0.754137	0.700191	16.9941	16.1671	7.95E-16	6.36E-15	7.95E-16	-60.7366	38.3134	11.9828	-28.0284	23.5773	-104.078	-16.8653	6.93172	1.9324	7.95E-16	6.36E-15	7.95E-16	75.1195	39.3885	-33.1876	21.6559	21.6374	103.407	10.3766	8.59563	1.5915	3.9558	-42.8467	15.6382	7.13653	39.9242	-11.5828	-10.2044	-18.2906	-4.08533	1.87E-14	3.14E-14	5.57E-15
145.9677	98.8548	-161.673	6.5813	-19.2705	-176.972	-4.59	-57.8626	3.37515	24.859	55.7595	-29.3717	5.3245	-1.1979	-6.23698	0.0462048	0.000533964	0.662642	-0.363586	0.718967	-0.458222	-0.72149	1.44358	-0.912195	0.927796	17.0727	16.0289	3.98E-16	-3.18E-15	0.00E+00	-60.5574	38.279	11.9002	-28.2078	23.7436	-103.927	-16.6602	7.12738	1.8684	3.98E-16	-3.18E-15	0.00E+00	74.8882	39.0087	-33.0059	21.7052	21.8547	103.19	10.6302	8.64799	1.5078	3.58704	-41.4841	15.5117	7.04614	39.2194	-11.6538	-10.3525	-18.7304	-4.17178	1.45E-14	3.22E-14	6.36E-15
145.8597	99.0666	-162.933	6.49475	-19.1398	-176.67	-4.18674	-58.2998	3.42911	20.7761	52.7362	-26.7893	5.40722	-1.53651	-4.08638	0.0462048	0.000533964	0.662642	-0.369103	0.701182	-0.510925	-0.732013	1.40839	-1.01765	1.13783	17.0769	15.7211	-4.97E-16	9.54E-15	7.95E-16	-60.3182	38.2442	11.7454	-28.3823	23.9741	-103.785	-16.3976	7.35783	1.78349	-4.97E-16	9.54E-15	7.95E-16	74.75	38.6483	-32.8906	21.7629	21.9741	103.037	10.8376	8.76131	1.4119	3.16396	-40.2213	15.2491	6.95445	38.6406	-11.7921	-10.4908	-19.1873	-4.24125	1.66E-14	3.18E-14	7.16E-15
145.7467	99.2035	-164.197	6.34561	-19.0335	-176.312	-3.93931	-58.5478	3.14838	16.9269	49.4308	-24.5633	5.90022	-1.94241	-1.92683	0.0462048	0.000533964	0.662642	-0.379073	0.685654	-0.559175	-0.75151	1.37774	-1.11414	1.30155	17.12	15.272	0.00E+00	9.54E-15	0.00E+00	-60.11	38.2402	11.5904	-28.5847	24.198	-103.632	-16.0812	7.59768	1.69235	0.00E+00	9.54E-15	0.00E+00	74.6911	38.3667	-32.8715	21.7876	21.9944	102.972	11.0195	8.88531	1.2986	2.62602	-39.0864	14.9151	6.96772	38.2232	-12.0256	-10.658	-19.6735	-4.36552	1.74E-14	3.18E-14	5.57E-15
145.6287	99.2481	-165.467	6.12951	-18.9677	-175.887	-3.94214	-58.6271	2.48736	13.3953	45.9003	-22.6743	6.85222	-2.47063	-0.550274	0.0462048	0.000533964	0.662642	-0.391916	0.665028	-0.621237	-0.776668	1.33703	-1.23825	1.4163	17.1572	14.7215	-2.58E-15	-6.36E-15	-7.95E-16	-59.9952	38.278	11.503	-28.8047	24.346	-103.499	-15.7721	7.83436	1.60311	-2.58E-15	-6.36E-15	-7.95E-16	74.677	38.155	-32.9462	21.7531	21.9531	102.977	11.1964	8.99552	1.20405	1.99501	-38.1449	14.4106	6.99346	38.0242	-12.1604	-10.9141	-20.1389	-4.57117	2.09E-14	3.30E-14	5.57E-15
145.5087	99.18	-166.742	5.85448	-18.9659	-175.389	-4.32363	-58.5436	1.37657	10.3327	42.1555	-21.1272	8.06145	-3.14449	0.149831	0.0462048	0.000533964	0.662642	-0.40716	0.644603	-0.689602	-0.806599	1.29682	-1.37495	1.48747	17.0099	14.0659	9.94E-16	6.36E-15	7.95E-16	-59.9269	38.3473	11.4467	-28.9691	24.4344	-103.434	-15.4902	8.03354	1.51501	9.94E-16	6.36E-15	7.95E-16	74.6294	37.9215	-33.0539	21.6576	21.9462	103.05	11.3647	9.08353	1.1388	1.1887	-37.4905	13.5705	7.04842	38.1202	-12.2452	-11.2637	-20.5373	-4.75601	1.40E-14	3.18E-14	5.57E-15
